<?xml version="1.0" encoding="UTF-8" standalone="no"?>
<!-- Created with Inkscape (http://www.inkscape.org/) -->

<svg
   width="100mm"
   height="125mm"
   viewBox="0 0 100 125"
   version="1.1"
   id="svg1"
   inkscape:version="1.4 (e7c3feb1, 2024-10-09)"
   sodipodi:docname="logo.svg"
   xmlns:inkscape="http://www.inkscape.org/namespaces/inkscape"
   xmlns:sodipodi="http://sodipodi.sourceforge.net/DTD/sodipodi-0.dtd"
   xmlns="http://www.w3.org/2000/svg"
   xmlns:svg="http://www.w3.org/2000/svg">
  <sodipodi:namedview
     id="namedview1"
     pagecolor="#505050"
     bordercolor="#ffffff"
     borderopacity="1"
     inkscape:showpageshadow="0"
     inkscape:pageopacity="0"
     inkscape:pagecheckerboard="1"
     inkscape:deskcolor="#505050"
     inkscape:document-units="mm"
     showgrid="false"
     inkscape:zoom="5.1450869"
     inkscape:cx="207.96539"
     inkscape:cy="108.74452"
     inkscape:window-width="1512"
     inkscape:window-height="916"
     inkscape:window-x="0"
     inkscape:window-y="38"
     inkscape:window-maximized="0"
     inkscape:current-layer="layer1">
    <inkscape:grid
       id="grid9"
       units="mm"
       originx="0"
       originy="0"
       spacingx="0.99999999"
       spacingy="0.99999999"
       empcolor="#0099e5"
       empopacity="0.30196078"
       color="#0099e5"
       opacity="0.14901961"
       empspacing="5"
       enabled="true"
       visible="false" />
  </sodipodi:namedview>
  <defs
     id="defs1" />
  <g
     inkscape:label="Ebene 1"
     inkscape:groupmode="layer"
     id="layer1">
    <path
       style="fill:#4ea6d9;fill-opacity:0;stroke:#203446;stroke-width:2;stroke-dasharray:none;paint-order:stroke fill markers;stroke-opacity:1"
       d="m 64.127898,125.27453 c 0.365961,-8.77276 -4.096836,-43.610426 -4.379337,-45.565909 -0.169944,-2.562927 2.169992,-9.494831 3.453346,-16.334629 0.97738,-5.20907 0.792323,-3.977227 0.890914,-9.833377"
       id="path1"
       sodipodi:nodetypes="ccsc" />
    <path
       style="fill:#4ea6d9;fill-opacity:0;stroke:#203446;stroke-width:2;stroke-dasharray:none;paint-order:stroke fill markers;stroke-opacity:1"
       d="m 25.059504,125.57966 c 1.469943,-3.20081 1.02139,-19.51868 2.779747,-31.804741 0.579335,-4.047948 2.979135,-12.567182 2.999792,-14.145542 0.139131,-10.630741 2.098347,-25.333669 -0.76869,-29.405976 -3.482154,7.098304 -10.923371,19.271672 -12.137039,28.584365"
       id="path2"
       sodipodi:nodetypes="csscc" />
    <path
       style="fill:#4ea6d9;fill-opacity:0;stroke:#203446;stroke-width:1.5;stroke-dasharray:none;paint-order:stroke fill markers;stroke-opacity:1"
       d="m 63.821152,57.810735 c -0.327877,6.688856 3.461014,13.785067 6.184423,15.766122 3.738363,2.71935 17.048497,-15.697682 18.486777,-17.588787 0.662633,-0.871255 1.591424,-1.531033 1.835573,-2.807031"
       id="path3"
       sodipodi:nodetypes="cssc" />
    <path
       style="fill:#4ea6d9;fill-opacity:0;stroke:#203446;stroke-width:1.5;stroke-linecap:round;stroke-dasharray:none;paint-order:stroke fill markers;stroke-opacity:1"
       d="m 70.823667,63.567916 c 3.697292,-1.617174 11.702166,-9.423112 11.922523,-11.736861 -0.408632,-1.595793 0.72779,-5.549247 1.406097,-6.297351 0.816994,-0.901063 4.662222,-1.069734 5.452796,-0.141351 0.967824,1.454842 0.0925,2.767356 -0.72538,3.044997 -0.722437,0.245243 -1.705366,0.01924 -2.399001,-0.989166"
       id="path4"
       sodipodi:nodetypes="ccscsc" />
    <path
       style="fill:#4ea6d9;fill-opacity:0;stroke:#203446;stroke-width:2;stroke-dasharray:none;paint-order:stroke fill markers;stroke-opacity:1"
       d="M 75.410899,60.942995 C 73.935749,54.501066 70.766444,40.510322 67.940304,36.993469 65.542415,34.009532 63.800816,32.469494 54.499504,31.326877"
       id="path5"
       sodipodi:nodetypes="csc" />
    <path
       style="fill:#4ea6d9;fill-opacity:0;stroke:#203446;stroke-width:2;stroke-dasharray:none;paint-order:stroke fill markers;stroke-opacity:1"
       d="m 39.537081,31.580334 c -19.4518,0.195109 -19.653949,14.727986 -26.311213,28.396722 -2.363375,4.852496 -5.6662327,17.10678 -4.8734429,18.93145 0.4815736,1.108381 -1.771741,6.438434 0.4056316,8.433811 2.1773723,1.995377 9.1512743,2.357945 7.2492863,-1.283779"
       id="path6"
       sodipodi:nodetypes="csszc" />
    <path
       style="fill:#4ea6d9;fill-opacity:0;stroke:#203446;stroke-width:2;stroke-dasharray:none;paint-order:stroke fill markers;stroke-opacity:1"
       d="m 30.370503,76.81516 c 13.661736,2.10942 19.461969,1.82456 29.481042,0.576178"
       id="path7"
       sodipodi:nodetypes="cc" />
    <path
       style="fill:#4ea6d9;fill-opacity:0;stroke:#203446;stroke-width:2;stroke-dasharray:none;paint-order:stroke fill markers;stroke-opacity:1"
       d="m 30.658592,81.232516 c 12.183117,2.1672 18.981821,1.56848 28.904864,0.768234"
       id="path8"
       sodipodi:nodetypes="cc" />
    <path
       style="fill:#4ea6d9;fill-opacity:0;stroke:#203446;stroke-width:2;stroke-dasharray:none;paint-order:stroke fill markers;stroke-opacity:1"
       d="M 54.959256,82.325973 C 54.858338,96.608639 51.786225,113.94933 39.450616,126.07103"
       id="path9"
       sodipodi:nodetypes="cc" />
    <path
       style="fill:#4ea6d9;fill-opacity:0;stroke:#203446;stroke-width:2;stroke-dasharray:none;paint-order:stroke fill markers;stroke-opacity:1"
       d="M 48.862756,82.646844 C 47.773999,94.724463 36.954973,118.83367 25.332405,124.68061"
       id="path10"
       sodipodi:nodetypes="cc" />
    <path
       style="fill:#4ea6d9;fill-opacity:0;stroke:#203446;stroke-width:2;stroke-dasharray:none;paint-order:stroke fill markers;stroke-opacity:1"
       d="M 24.097874,59.74499 C 20.99993,58.317242 18.595639,57.403016 14.0767,56.673984"
       id="path11"
       sodipodi:nodetypes="cc" />
    <path
       style="fill:#4ea6d9;fill-opacity:0;stroke:#203446;stroke-width:2;stroke-dasharray:none;paint-order:stroke fill markers;stroke-opacity:1"
       d="m 22.724003,63.704969 c -2.153146,-1.64423 -6.384457,-2.613049 -9.69791,-3.313454"
       id="path12"
       sodipodi:nodetypes="cc" />
    <path
       style="fill:#4ea6d9;fill-opacity:0;stroke:#203446;stroke-width:1.5;stroke-dasharray:none;paint-order:stroke fill markers;stroke-opacity:1"
       d="m 37.137122,31.90889 c 4.4539,6.514158 17.359796,5.989182 21.47081,-0.122135"
       id="path13"
       sodipodi:nodetypes="cc" />
    <path
       style="fill:#4ea6d9;fill-opacity:0;stroke:#203446;stroke-width:1.5;stroke-dasharray:none;paint-order:stroke fill markers;stroke-opacity:1"
       d="m 32.946122,32.564609 c 8.747642,11.600687 24.506046,8.019379 29.087915,0.581832"
       id="path14"
       sodipodi:nodetypes="cc" />
    <path
       style="fill:#4ea6d9;fill-opacity:0;stroke:#203446;stroke-width:1.5;stroke-dasharray:none;paint-order:stroke fill markers;stroke-opacity:1"
       d="m 29.373944,33.44219 c 10.263488,15.533402 31.100713,11.690735 36.475829,1.01803"
       id="path15"
       sodipodi:nodetypes="cc" />
    <path
       style="fill:#203446;fill-opacity:1;stroke:#203446;stroke-width:1.5;stroke-dasharray:none;paint-order:stroke fill markers;stroke-opacity:1"
       d="m 54.159343,25.305822 c 1.112772,7.870061 -0.578274,19.977227 -0.05524,20.519629 0.301594,0.312759 5.919057,0.571464 6.520256,0.191773 1.375179,-0.868504 2.440589,-14.530715 0.47943,-22.341465 -3.322388,1.860949 -4.629747,1.732079 -6.944446,1.630063 z"
       id="path16"
       sodipodi:nodetypes="csscc" />
    <path
       style="fill:#4ea6d9;fill-opacity:0;stroke:#203446;stroke-width:1.5;stroke-linecap:round;stroke-dasharray:none;paint-order:stroke fill markers;stroke-opacity:1"
       d="m 29.740642,33.40403 c 0,0 0.189228,-9.439297 3.116615,-18.095069 2.927386,-8.6557718 5.86867,-14.0258825 16.315369,-14.0548845 10.446699,-0.029002 14.129241,4.0693241 15.527757,10.5253435 3.703524,0.482624 4.522455,0.707996 6.771546,1.705693 4.552348,2.019421 8.570401,8.784024 8.106763,8.427944 -3.331665,-2.558767 -9.103193,-5.473608 -11.937739,-4.77646 -1.685037,0.41443 -2.344167,1.687901 -3.17471,2.863438 -0.968329,1.370558 -2.070517,2.710325 -3.308824,3.593619 -2.442159,1.742012 -2.919281,1.915576 -6.973769,1.701044 -1.779801,-0.09417 -3.397688,-0.90251 -3.397688,-0.90251"
       id="path17"
       sodipodi:nodetypes="cssssczzssc" />
    <path
       style="fill:#203446;fill-opacity:1;stroke:#203446;stroke-width:1;stroke-dasharray:none;paint-order:stroke fill markers;stroke-opacity:1"
       d="m 64.483432,11.486267 c -0.444917,1.379226 -0.60627,2.882218 -0.51022,4.456388 2.911634,0.674046 6.949512,0.06811 14.907502,5.131292 -2.550049,-2.929816 -2.455464,-7.759091 -14.397282,-9.58768 z"
       id="path18"
       sodipodi:nodetypes="cccc" />
    <circle
       style="fill:#203446;fill-opacity:1;stroke:#203446;stroke-width:1;stroke-dasharray:none;paint-order:stroke fill markers;stroke-opacity:1"
       id="path19"
       cx="57.717606"
       cy="13.247301"
       r="2" />
    <path
       style="fill:#203446;fill-opacity:1;stroke:#203446;stroke-width:1;stroke-dasharray:none;paint-order:stroke fill markers;stroke-opacity:1"
       d="m 62.567447,11.576022 c -1.720457,-0.232738 -11.372711,0.129392 -13.864966,0.748332 -1.651035,0.410027 1.092746,-0.803688 3.528157,-1.125694 2.435411,-0.322007 4.308564,-0.521593 5.19091,-0.494291 2.614098,0.08089 6.866356,1.104392 5.145899,0.871653 z"
       id="path20"
       sodipodi:nodetypes="zszsz" />
    <path
       style="fill:#203446;fill-opacity:1;stroke:#203446;stroke-width:1;stroke-dasharray:none;paint-order:stroke fill markers;stroke-opacity:1"
       d="m 63.632647,8.1075647 c 0,0 -10.714395,-1.1600138 -13.866834,-0.1980978 -3.152439,0.961916 -4.35834,3.1022541 -5.017711,6.6211661 -0.221024,1.179556 0.305558,2.811734 -0.7102,7.238466 -0.399125,1.739412 -1.586133,5.647472 -0.853376,9.611835 0.729377,3.946076 0.866002,12.67836 -0.352129,12.879443 -1.218131,0.201083 -6.64876,0.359642 -7.341842,-0.486856 -0.693082,-0.846498 0.400991,-8.95489 -0.341077,-9.819158 -0.742068,-0.864268 -5.328769,-0.625031 -5.328769,-0.625031 0,0 1.065981,-17.975368 5.36861,-23.9376799 3.583932,-8.3318545 11.986669,-8.2629489 15.140976,-8.3061784 7.29938,0.096994 11.368432,2.926731 13.302352,7.022091 z"
       id="path21"
       sodipodi:nodetypes="czssszzzcccc" />
    <path
       style="fill:#4ea6d9;fill-opacity:0.0146444;stroke:#203446;stroke-width:1.25;stroke-linecap:round;stroke-dasharray:none;paint-order:stroke fill markers;stroke-opacity:1"
       d="m 10.176195,85.349477 c 3.680571,1.752681 8.723172,1.151201 6.102106,-1.049862"
       id="path22"
       sodipodi:nodetypes="cc" />
    <path
       style="fill:#4ea6d9;fill-opacity:0.0146444;stroke:#203446;stroke-width:1.25;stroke-linecap:round;stroke-dasharray:none;stroke-opacity:1;paint-order:stroke fill markers"
       d="m 10.485322,83.448104 c 2.279845,1.209029 5.879722,1.124491 6.277064,0.477243 1.197882,-1.951283 -3.201018,-1.356102 -5.823416,-2.552313"
       id="path23"
       sodipodi:nodetypes="csc" />
    <path
       style="fill:#4ea6d9;fill-opacity:0.0146444;stroke:#203446;stroke-width:1.25;stroke-dasharray:none;stroke-opacity:1;paint-order:stroke fill markers"
       d="m 8.386609,79.412178 c -0.014291,0 2.524904,-0.799655 4.271279,-0.592549 4.016933,0.476379 4.834497,2.237761 3.234321,3.505906"
       id="path24"
       sodipodi:nodetypes="csc" />
    <path
       style="fill:#4ea6d9;fill-opacity:0.0146444;stroke:#203446;stroke-width:1.25;stroke-dasharray:none;stroke-opacity:1;paint-order:stroke fill markers"
       d="m 14.908165,79.548334 c 0.657014,-0.613172 1.653476,-1.231115 2.864506,-0.970471 1.317304,0.283517 1.070542,3.250878 -0.711111,4.27018"
       id="path25"
       sodipodi:nodetypes="csc" />
    <path
       style="fill:#4ea6d9;fill-opacity:0.0146444;stroke:#203446;stroke-width:3;stroke-dasharray:none;stroke-opacity:1;paint-order:stroke fill markers"
       d="M 12.935251,78.820284 13.728558,40.146535 C 13.594974,36.406202 13.190757,30.363818 8.4563315,30.230188 3.7219055,30.096558 2.876148,36.810131 2.933398,40.642351"
       id="path26"
       sodipodi:nodetypes="cczc" />
    <path
       style="fill:#4ea6d9;fill-opacity:0.0146444;stroke:#203446;stroke-width:3.17449;stroke-dasharray:none;stroke-opacity:1;paint-order:stroke fill markers"
       d="M 13.098487,88.921888 12.684522,125.70061"
       id="path27"
       sodipodi:nodetypes="cc" />
    <path
       style="fill:#4ea6d9;fill-opacity:0.0146444;stroke:#203446;stroke-width:1.25;stroke-linecap:butt;stroke-dasharray:none;stroke-opacity:1;paint-order:stroke fill markers"
       d="m 90.355035,45.64509 c 0.91461,-0.517064 4.183011,0.202851 3.378277,2.237262"
       id="path28"
       sodipodi:nodetypes="cc" />
    <path
       style="fill:#4ea6d9;fill-opacity:0.0146444;stroke:#203446;stroke-width:1.25;stroke-linecap:butt;stroke-dasharray:none;stroke-opacity:1;paint-order:stroke fill markers"
       d="m 90.177086,47.582003 c 0.754074,-0.11276 3.772925,0.323985 3.913018,1.052128 0.150598,0.78274 -0.582746,1.356501 -1.806193,1.221298 -0.740386,-0.08182 -2.306582,-0.333265 -2.833141,-1.107967"
       id="path29"
       sodipodi:nodetypes="cssc" />
    <path
       style="fill:#4ea6d9;fill-opacity:0.0146444;stroke:#203446;stroke-width:1.25;stroke-linecap:butt;stroke-dasharray:none;stroke-opacity:1;paint-order:stroke fill markers"
       d="m 93.040587,49.92726 c 0.802479,0.525695 0.492273,2.105703 -1.865806,1.701075 -0.999586,-0.171522 -1.660118,-0.427279 -1.891541,-0.935429 -0.171798,-0.377226 0.07942,-1.248219 0.381539,-1.557523"
       id="path30"
       sodipodi:nodetypes="cssc" />
    <path
       style="fill:#4ea6d9;fill-opacity:0.0146444;stroke:#203446;stroke-width:1.25;stroke-linecap:butt;stroke-dasharray:none;stroke-opacity:1;paint-order:stroke fill markers"
       d="m 92.545492,51.685357 c 0.566482,0.653019 -0.06984,2.216043 -2.567126,1.761469 -2.497288,-0.454574 -1.660665,-2.78644 -0.690486,-2.823295"
       id="path31"
       sodipodi:nodetypes="czc" />
    <path
       style="fill:#4ea6d9;fill-opacity:0.0146444;stroke:#203446;stroke-width:2.5;stroke-linecap:butt;stroke-dasharray:none;stroke-opacity:1;paint-order:stroke fill markers"
       d="M 90.861266,45.869466 91.951412,34.970497"
       id="path32"
       sodipodi:nodetypes="cc" />
    <circle
       style="fill:#4ea6d9;fill-opacity:0.0146444;stroke:#203446;stroke-width:1.5;stroke-linecap:round;stroke-dasharray:none;stroke-opacity:1;paint-order:stroke fill markers"
       id="path35"
       cx="92.501808"
       cy="28.853655"
       r="6.5" />
    <path
       style="fill:#4ea6d9;fill-opacity:0.0146444;stroke:#203446;stroke-width:2.5;stroke-linecap:butt;stroke-dasharray:none;stroke-opacity:1;paint-order:stroke fill markers"
       d="m 90.170672,52.865635 -0.395837,2.582293"
       id="path36"
       sodipodi:nodetypes="cc" />
    <path
       style="fill:#4ea6d9;fill-opacity:0.0146444;stroke:#203446;stroke-width:2.5;stroke-linecap:round;stroke-dasharray:none;stroke-opacity:1;paint-order:stroke fill markers"
       d="m 89.933277,54.249517 -0.13732,0.988619 -0.112434,0.729769"
       id="path37"
       sodipodi:nodetypes="ccc" />
    <path
       style="fill:#4ea6d9;fill-opacity:0.0146444;stroke:#203446;stroke-width:3;stroke-linecap:round;stroke-dasharray:none;stroke-opacity:1;paint-order:stroke fill markers"
       d="m 2.9225313,40.343815 v 1.101791"
       id="path39"
       sodipodi:nodetypes="cc" />
    <path
       style="fill:#4ea6d9;fill-opacity:0.0146444;stroke:#203446;stroke-width:2;stroke-linecap:round;stroke-dasharray:none;stroke-opacity:1;paint-order:stroke fill markers"
       d="m 64.078456,54.690246 0.02527,-1.164414"
       id="path40"
       sodipodi:nodetypes="cc" />
    <path
       style="fill:#4ea6d9;fill-opacity:0;stroke:#203446;stroke-width:3;stroke-linecap:round;stroke-dasharray:none;paint-order:stroke fill markers;stroke-opacity:1"
       d="M 2.8557143,40.585119 C 3.065155,29.679959 5.1248075,23.549972 12.757461,18.706536"
       id="path33"
       sodipodi:nodetypes="cc" />
  </g>
</svg>
